<svg width="32" height="32" viewBox="0 0 32 32" xmlns="http://www.w3.org/2000/svg">
  <!-- Fondo circular -->
  <circle cx="16" cy="16" r="16" fill="#22c55e"/>
  
  <!-- Icono de campo simplificado -->
  <g transform="translate(4, 8)">
    <!-- Montañas -->
    <path d="M0,16 L4,8 L8,12 L12,4 L16,16 L20,2 L24,16" fill="#16a34a" opacity="0.6"/>
    
    <!-- Campo -->
    <rect x="0" y="16" width="24" height="8" fill="#15803d"/>
    
    <!-- Líneas de pasto -->
    <g stroke="#0f5132" stroke-width="0.5" fill="none">
      <path d="M2,18 L2,22 M4,17 L4,23 M6,19 L6,21 M8,16 L8,24 M10,18 L10,22 M12,17 L12,23 M14,19 L14,21 M16,16 L16,24 M18,18 L18,22 M20,17 L20,23 M22,19 L22,21"/>
    </g>
    
    <!-- Sol -->
    <circle cx="20" cy="6" r="3" fill="#fbbf24"/>
    <g stroke="#f59e0b" stroke-width="0.5" fill="none">
      <line x1="20" y1="1" x2="20" y2="3"/>
      <line x1="20" y1="9" x2="20" y2="11"/>
      <line x1="15" y1="6" x2="17" y2="6"/>
      <line x1="23" y1="6" x2="25" y2="6"/>
    </g>
  </g>
</svg>