<svg xmlns="http://www.w3.org/2000/svg" viewBox="0 0 200 200">
  <!-- Fondo circular con gradiente -->
  <defs>
    <linearGradient id="grad1" x1="0%" y1="0%" x2="100%" y2="100%">
      <stop offset="0%" style="stop-color:#059669;stop-opacity:1" />
      <stop offset="100%" style="stop-color:#047857;stop-opacity:1" />
    </linearGradient>
  </defs>
  
  <circle cx="100" cy="100" r="95" fill="url(#grad1)" stroke="#065F46" stroke-width="3"/>
  
  <!-- Edificio/Institución -->
  <g transform="translate(100, 100)">
    <!-- Base del edificio -->
    <rect x="-40" y="-20" width="80" height="60" fill="#FFFFFF" opacity="0.95" rx="4"/>
    
    <!-- Ventanas -->
    <rect x="-30" y="-10" width="15" height="12" fill="#34D399" opacity="0.7" rx="2"/>
    <rect x="-30" y="5" width="15" height="12" fill="#34D399" opacity="0.7" rx="2"/>
    <rect x="-30" y="20" width="15" height="12" fill="#34D399" opacity="0.7" rx="2"/>
    
    <rect x="-8" y="-10" width="15" height="12" fill="#34D399" opacity="0.7" rx="2"/>
    <rect x="-8" y="5" width="15" height="12" fill="#34D399" opacity="0.7" rx="2"/>
    <rect x="-8" y="20" width="15" height="12" fill="#34D399" opacity="0.7" rx="2"/>
    
    <rect x="14" y="-10" width="15" height="12" fill="#34D399" opacity="0.7" rx="2"/>
    <rect x="14" y="5" width="15" height="12" fill="#34D399" opacity="0.7" rx="2"/>
    <rect x="14" y="20" width="15" height="12" fill="#34D399" opacity="0.7" rx="2"/>
    
    <!-- Techo -->
    <polygon points="-45,-20 0,-45 45,-20" fill="#FFFFFF" opacity="0.9"/>
    
    <!-- Bandera/Distintivo -->
    <rect x="-3" y="-60" width="6" height="15" fill="#FFFFFF"/>
    <polygon points="3,-60 3,-50 15,-55" fill="#34D399"/>
  </g>
  
  <!-- Texto -->
  <text x="100" y="170" font-family="Arial, sans-serif" font-size="14" font-weight="bold" fill="#FFFFFF" text-anchor="middle">
    INSTITUCIÓN
  </text>
</svg>







